<?xml version="1.0" encoding="UTF-8" standalone="no"?>
<!DOCTYPE svg PUBLIC "-//W3C//DTD SVG 1.1//EN" "http://www.w3.org/Graphics/SVG/1.1/DTD/svg11.dtd">
<svg width="100%" height="100%" viewBox="0 0 360 121" version="1.1" xmlns="http://www.w3.org/2000/svg" xmlns:xlink="http://www.w3.org/1999/xlink" xml:space="preserve" xmlns:serif="http://www.serif.com/" style="fill-rule:evenodd;clip-rule:evenodd;stroke-linejoin:round;stroke-miterlimit:2;">
    <g transform="matrix(1,0,0,1,-385.279,-132.945)">
        <g id="Pruple_Vertical" transform="matrix(1,0,0,1,384.996,10.6617)">
            <rect x="0.283" y="122.283" width="360" height="120.001" style="fill:none;"/>
            <g transform="matrix(1,0,0,1,152.95,237.157)">
                <path d="M0,-105.182L-0.909,-96.178L11.519,-97.349L-0.487,-24.702L-21.934,-23.369L-55.939,0L-54.529,-22.405L-122.674,-18.192L-125.231,-28.888L-131.059,-28.464L-140.384,-90.104L0,-105.182Z" style="fill:rgb(109,142,160);fill-rule:nonzero;"/>
            </g>
            <g transform="matrix(1,0,0,1,17.4905,213.431)">
                <path d="M0,-62.456L8.008,-9.31L86.701,-14.305L84.45,14.299L106.161,-14.406L125.328,-15.821L130.759,-76.755L0,-62.456Z" style="fill:rgb(38,15,38);fill-rule:nonzero;"/>
            </g>
            <g transform="matrix(1,0,0,1,190.926,143.271)">
                <path d="M0,37.583C-2.306,37.583 -4.508,37.202 -6.608,36.439C-8.708,35.678 -10.548,34.525 -12.128,32.983C-13.708,31.44 -14.963,29.507 -15.892,27.184C-16.822,24.86 -17.286,22.156 -17.286,19.07C-17.286,16.022 -16.803,13.318 -15.836,10.958C-14.87,8.597 -13.578,6.608 -11.961,4.991C-10.344,3.374 -8.485,2.138 -6.385,1.283C-4.285,0.428 -2.082,0 0.223,0C2.639,0 4.795,0.475 6.69,1.423C8.587,2.371 10.185,3.495 11.485,4.796L6.468,10.93C5.575,10.149 4.655,9.508 3.707,9.006C2.76,8.504 1.672,8.253 0.445,8.253C-0.632,8.253 -1.646,8.495 -2.594,8.978C-3.541,9.461 -4.378,10.149 -5.103,11.041C-5.828,11.933 -6.403,13.03 -6.831,14.331C-7.259,15.632 -7.473,17.101 -7.473,18.736C-7.473,22.156 -6.757,24.776 -5.325,26.598C-3.895,28.419 -2.008,29.33 0.334,29.33C1.746,29.33 3.001,29.024 4.098,28.41C5.194,27.797 6.133,27.062 6.914,26.208L11.932,32.23C10.371,34.014 8.577,35.353 6.551,36.245C4.525,37.137 2.341,37.583 0,37.583M14.702,36.914L14.702,0.67L28.419,0.67C30.353,0.67 32.202,0.855 33.968,1.228C35.733,1.599 37.276,2.231 38.596,3.124C39.915,4.015 40.965,5.214 41.746,6.72C42.526,8.226 42.917,10.112 42.917,12.379C42.917,14.982 42.387,17.138 41.327,18.847C40.269,20.558 38.847,21.896 37.063,22.863L44.924,36.914L34.218,36.914L27.974,24.758L24.293,24.758L24.293,36.914L14.702,36.914ZM24.293,17.175L27.75,17.175C31.616,17.175 33.549,15.577 33.549,12.379C33.549,10.818 33.057,9.74 32.072,9.145C31.087,8.551 29.646,8.253 27.75,8.253L24.293,8.253L24.293,17.175ZM62.861,37.583C60.333,37.583 58.038,37.155 55.975,36.3C53.912,35.445 52.146,34.209 50.678,32.592C49.21,30.976 48.066,28.987 47.248,26.626C46.431,24.266 46.022,21.598 46.022,18.625C46.022,15.651 46.431,13.002 47.248,10.679C48.066,8.355 49.21,6.404 50.678,4.824C52.146,3.244 53.912,2.045 55.975,1.228C58.038,0.41 60.333,0 62.861,0C65.352,0 67.638,0.41 69.72,1.228C71.802,2.045 73.576,3.254 75.045,4.852C76.513,6.45 77.656,8.402 78.474,10.707C79.292,13.011 79.701,15.651 79.701,18.625C79.701,21.598 79.292,24.266 78.474,26.626C77.656,28.987 76.513,30.976 75.045,32.592C73.576,34.209 71.802,35.445 69.72,36.3C67.638,37.155 65.352,37.583 62.861,37.583M62.861,29.33C65.055,29.33 66.773,28.373 68.02,26.458C69.265,24.544 69.887,21.933 69.887,18.625C69.887,15.316 69.265,12.76 68.02,10.958C66.773,9.155 65.055,8.253 62.861,8.253C60.668,8.253 58.948,9.155 57.703,10.958C56.458,12.76 55.836,15.316 55.836,18.625C55.836,21.933 56.458,24.544 57.703,26.458C58.948,28.373 60.668,29.33 62.861,29.33M86.82,36.914L80.464,0.67L90.277,0.67L92.285,16.505C92.471,18.401 92.675,20.297 92.898,22.193C93.121,24.089 93.326,25.985 93.512,27.88L93.734,27.88C94.069,25.985 94.403,24.089 94.738,22.193C95.072,20.297 95.407,18.401 95.742,16.505L99.199,0.67L107.229,0.67L110.686,16.505C111.021,18.327 111.354,20.195 111.689,22.11C112.023,24.024 112.358,25.948 112.692,27.88L112.916,27.88C113.102,25.948 113.307,24.033 113.529,22.137C113.752,20.241 113.957,18.364 114.143,16.505L116.15,0.67L125.294,0.67L119.272,36.914L107.117,36.914L104.329,22.528C104.031,21.115 103.78,19.684 103.576,18.234C103.372,16.784 103.177,15.39 102.99,14.052L102.768,14.052C102.582,15.39 102.387,16.784 102.182,18.234C101.978,19.684 101.727,21.115 101.43,22.528L98.753,36.914L86.82,36.914ZM127.619,36.914L127.619,0.67L138.324,0.67C141.076,0.67 143.595,1.004 145.88,1.673C148.166,2.343 150.127,3.402 151.763,4.852C153.398,6.301 154.672,8.161 155.582,10.428C156.493,12.695 156.949,15.428 156.949,18.625C156.949,21.821 156.503,24.572 155.61,26.877C154.718,29.182 153.464,31.078 151.847,32.564C150.229,34.051 148.315,35.148 146.104,35.854C143.892,36.561 141.484,36.914 138.883,36.914L127.619,36.914ZM137.21,29.219L137.768,29.219C139.068,29.219 140.295,29.061 141.447,28.745C142.6,28.429 143.595,27.88 144.431,27.1C145.268,26.319 145.927,25.241 146.41,23.866C146.894,22.491 147.135,20.743 147.135,18.625C147.135,16.505 146.894,14.777 146.41,13.439C145.927,12.101 145.268,11.06 144.431,10.316C143.595,9.573 142.6,9.062 141.447,8.783C140.295,8.504 139.068,8.365 137.768,8.365L137.21,8.365L137.21,29.219Z" style="fill:rgb(38,15,38);fill-rule:nonzero;"/>
            </g>
            <g transform="matrix(1,0,0,1,0.283,-205.572)">
                <path d="M175.252,390.858L182.848,390.858L182.848,419.566L175.252,419.566L175.252,390.858ZM187.429,419.565L187.429,390.858L195.201,390.858L201.562,403.666L204.3,410.114L204.477,410.114C204.388,409.348 204.285,408.509 204.167,407.596C204.05,406.684 203.946,405.749 203.858,404.792C203.77,403.835 203.688,402.878 203.615,401.921C203.541,400.964 203.505,400.044 203.505,399.161L203.505,390.858L210.748,390.858L210.748,419.565L202.975,419.565L196.614,406.713L193.876,400.309L193.7,400.309C193.876,401.958 194.083,403.754 194.318,405.697C194.554,407.641 194.672,409.495 194.672,411.262L194.672,419.565L187.429,419.565ZM224.425,420.095C222.6,420.095 220.723,419.764 218.794,419.101C216.865,418.439 215.121,417.401 213.561,415.987L217.889,410.777C218.919,411.601 220.03,412.271 221.223,412.786C222.416,413.301 223.542,413.559 224.602,413.559C225.75,413.559 226.582,413.382 227.098,413.029C227.612,412.675 227.87,412.175 227.87,411.527C227.87,411.173 227.781,410.879 227.604,410.644C227.429,410.408 227.171,410.188 226.832,409.981C226.493,409.775 226.089,409.577 225.617,409.385C225.146,409.194 224.602,408.981 223.983,408.744L220.406,407.243C219.641,406.948 218.904,406.558 218.197,406.073C217.491,405.587 216.873,405.012 216.343,404.35C215.812,403.688 215.394,402.929 215.084,402.076C214.775,401.222 214.62,400.28 214.62,399.249C214.62,398.012 214.885,396.857 215.415,395.782C215.945,394.708 216.682,393.765 217.624,392.955C218.565,392.146 219.691,391.506 221.002,391.034C222.312,390.563 223.748,390.328 225.309,390.328C226.957,390.328 228.628,390.636 230.321,391.255C232.015,391.874 233.523,392.845 234.848,394.17L231.05,398.94C230.078,398.262 229.144,397.747 228.245,397.394C227.348,397.041 226.368,396.864 225.309,396.864C224.366,396.864 223.63,397.026 223.1,397.35C222.57,397.674 222.306,398.16 222.306,398.807C222.306,399.485 222.681,400.007 223.432,400.375C224.182,400.743 225.221,401.178 226.545,401.678L230.034,403.048C231.83,403.754 233.214,404.74 234.186,406.006C235.157,407.273 235.643,408.906 235.643,410.908C235.643,412.116 235.393,413.279 234.893,414.398C234.392,415.517 233.663,416.496 232.706,417.335C231.749,418.174 230.579,418.844 229.194,419.344C227.811,419.845 226.222,420.095 224.425,420.095M238.456,390.858L246.052,390.858L246.052,419.566L238.456,419.566L238.456,390.858ZM263.882,420.095C261.879,420.095 259.995,419.794 258.228,419.19C256.461,418.586 254.923,417.673 253.613,416.452C252.303,415.23 251.272,413.698 250.521,411.858C249.771,410.018 249.396,407.876 249.396,405.432C249.396,403.018 249.777,400.876 250.544,399.006C251.309,397.136 252.347,395.561 253.657,394.28C254.968,393 256.491,392.021 258.228,391.343C259.966,390.666 261.791,390.328 263.705,390.328C265.824,390.328 267.657,390.703 269.203,391.454C270.749,392.205 272.037,393.095 273.068,394.126L269.093,398.984C268.386,398.366 267.643,397.858 266.862,397.46C266.082,397.063 265.118,396.864 263.97,396.864C262.998,396.864 262.1,397.055 261.275,397.439C260.451,397.821 259.729,398.366 259.111,399.072C258.493,399.779 258.015,400.648 257.676,401.678C257.338,402.709 257.168,403.872 257.168,405.167C257.168,407.876 257.771,409.952 258.979,411.395C260.187,412.837 262.085,413.559 264.677,413.559C265.089,413.559 265.493,413.514 265.891,413.426C266.288,413.338 266.62,413.205 266.885,413.029L266.885,409.054L262.645,409.054L262.645,402.871L273.598,402.871L273.598,416.562C272.567,417.533 271.198,418.365 269.49,419.057C267.782,419.749 265.913,420.095 263.882,420.095M277.382,419.565L277.382,390.858L284.979,390.858L284.979,401.546L293.547,401.546L293.547,390.858L301.144,390.858L301.144,419.565L293.547,419.565L293.547,408.171L284.979,408.171L284.979,419.565L277.382,419.565ZM311.199,419.565L311.199,397.217L303.603,397.217L303.603,390.858L326.392,390.858L326.392,397.217L318.795,397.217L318.795,419.565L311.199,419.565ZM337.066,420.095C335.24,420.095 333.363,419.764 331.435,419.101C329.507,418.439 327.762,417.401 326.201,415.987L330.529,410.777C331.56,411.601 332.672,412.271 333.863,412.786C335.057,413.301 336.183,413.559 337.242,413.559C338.391,413.559 339.223,413.382 339.738,413.029C340.253,412.675 340.511,412.175 340.511,411.527C340.511,411.173 340.423,410.879 340.246,410.644C340.069,410.408 339.812,410.188 339.473,409.981C339.135,409.775 338.729,409.577 338.258,409.385C337.787,409.194 337.242,408.981 336.624,408.744L333.047,407.243C332.281,406.948 331.545,406.558 330.839,406.073C330.132,405.587 329.514,405.012 328.984,404.35C328.453,403.688 328.034,402.929 327.725,402.076C327.416,401.222 327.262,400.28 327.262,399.249C327.262,398.012 327.526,396.857 328.057,395.782C328.586,394.708 329.322,393.765 330.265,392.955C331.207,392.146 332.333,391.506 333.643,391.034C334.953,390.563 336.389,390.328 337.949,390.328C339.598,390.328 341.269,390.636 342.962,391.255C344.655,391.874 346.164,392.845 347.489,394.17L343.69,398.94C342.719,398.262 341.784,397.747 340.887,397.394C339.988,397.041 339.009,396.864 337.949,396.864C337.007,396.864 336.271,397.026 335.741,397.35C335.211,397.674 334.946,398.16 334.946,398.807C334.946,399.485 335.321,400.007 336.072,400.375C336.823,400.743 337.861,401.178 339.186,401.678L342.675,403.048C344.471,403.754 345.854,404.74 346.826,406.006C347.798,407.273 348.284,408.906 348.284,410.908C348.284,412.116 348.033,413.279 347.533,414.398C347.032,415.517 346.304,416.496 345.347,417.335C344.39,418.174 343.22,418.844 341.836,419.344C340.452,419.845 338.862,420.095 337.066,420.095" style="fill:rgb(38,15,38);fill-rule:nonzero;"/>
            </g>
        </g>
    </g>
</svg>
