<svg width="20" height="17" viewBox="0 0 20 17" fill="none" xmlns="http://www.w3.org/2000/svg">
    <path d="M20 2.29746C19.2642 2.62412 18.4733 2.84412 17.6433 2.94329C18.4908 2.43579 19.1417 1.63162 19.4475 0.673291C18.655 1.14329 17.7767 1.48496 16.8417 1.66912C16.0942 0.871624 15.0267 0.373291 13.8467 0.373291C11.1975 0.373291 9.25083 2.84496 9.84917 5.41079C6.44 5.23996 3.41667 3.60662 1.3925 1.12412C0.3175 2.96829 0.835 5.38079 2.66167 6.60246C1.99 6.58079 1.35667 6.39662 0.804167 6.08912C0.759167 7.98996 2.12167 9.76829 4.095 10.1641C3.5175 10.3208 2.885 10.3575 2.24167 10.2341C2.76333 11.8641 4.27833 13.05 6.075 13.0833C4.35 14.4358 2.17667 15.04 0 14.7833C1.81583 15.9475 3.97333 16.6266 6.29 16.6266C13.9083 16.6266 18.2125 10.1925 17.9525 4.42162C18.7542 3.84246 19.45 3.11996 20 2.29746Z" fill="black"/>
</svg>
